# Blender 3.1.0
# www.blender.org
mtllib cube.mtl
o cube
v -1.000000 1.000000 -0.164036
v 1.000000 1.000000 -0.164036
v 1.000000 1.000000 -2.164036
v -1.000000 1.000000 -2.164036
v 1.000000 -1.000000 -2.164036
v -1.000000 -1.000000 -2.164036
v 1.000000 -1.000000 -0.164036
v -1.000000 -1.000000 -0.164036
vn -0.0000 2.0000 -0.0000
vn -0.0000 -0.0000 -2.0000
vn -0.0000 -2.0000 -0.0000
vn -0.0000 -0.0000 2.0000
vn 2.0000 -0.0000 -0.0000
vn -2.0000 -0.0000 -0.0000
vt 0.597429 0.941369
vt 0.603991 0.169423
vt 0.404442 0.939729
vt 0.411004 0.167783
vt 0.406083 0.746743
vt 0.218018 0.166142
vt 0.599069 0.748383
vt 0.796977 0.171064
vt 0.407723 0.553756
vt 0.216377 0.359129
vt 0.600710 0.555396
vt 0.795337 0.364051
vt 0.409364 0.360769
vt 0.602350 0.362410
s 1
usemtl initialShadingGroup
f 1/1/1 2/3/1 3/5/1 4/7/1
f 4/7/2 3/5/2 5/9/2 6/11/2
f 6/11/3 5/9/3 7/13/3 8/14/3
f 8/14/4 7/13/4 2/4/4 1/2/4
f 2/4/5 7/13/5 5/10/5 3/6/5
f 8/14/6 1/2/6 4/8/6 6/12/6
